<?xml version="1.0" standalone="no"?>
<!DOCTYPE svg PUBLIC "-//W3C//DTD SVG 20010904//EN"
 "http://www.w3.org/TR/2001/REC-SVG-20010904/DTD/svg10.dtd">
<svg version="1.0" xmlns="http://www.w3.org/2000/svg"
 width="512.000000pt" height="512.000000pt" viewBox="0 0 512.000000 512.000000"
 preserveAspectRatio="xMidYMid meet">

<g transform="translate(0.000000,512.000000) scale(0.100000,-0.100000)"
fill="#0000x00" stroke="none">
<path d="M3135 4141 c-27 -13 -275 -254 -782 -762 -806 -808 -765 -762 -748
-856 6 -34 91 -123 758 -790 658 -657 757 -753 795 -764 116 -34 227 77 193
194 -11 37 -99 129 -689 720 l-677 677 677 678 c715 716 708 709 694 785 -10
53 -43 97 -89 117 -53 24 -81 25 -132 1z"/>
</g>
</svg>
